<svg width="60" height="42" viewBox="0 0 60 42" fill="#0030CC" xmlns="http://www.w3.org/2000/svg">
<path d="M29.4375 14.5312C29.7188 14.25 30.1875 14.25 30.4688 14.5312L38.7188 22.7812C39 23.0625 39 23.5312 38.7188 23.8125C38.4375 24.0938 37.9688 24.0938 37.6875 23.8125L30.75 16.875V35.25C30.75 35.7188 30.375 36 30 36C29.5312 36 29.25 35.7188 29.25 35.25V16.875L22.2188 23.8125C21.9375 24.0938 21.4688 24.0938 21.1875 23.8125C20.9062 23.5312 20.9062 23.0625 21.1875 22.7812L29.4375 14.5312ZM24 0C28.9688 0 33.375 2.53125 36.1875 6.28125C36.4688 6.65625 36.75 7.125 36.9375 7.59375C37.3125 7.3125 37.5938 7.125 37.9688 6.9375C39.1875 6.375 40.5 6 42 6C46.9688 6 51 10.0312 51 15C51 15.6562 50.9062 16.2188 50.8125 16.875C50.7188 17.3438 50.5312 17.8125 50.3438 18.2812C50.8125 18.375 51.375 18.4688 51.8438 18.6562C56.5312 20.25 60 24.75 60 30C60 36.6562 54.5625 42 48 42H13.5C6 42 0 36 0 28.5C0 22.6875 3.75 17.625 9 15.8438C9 15.5625 9 15.2812 9 15C9 6.75 15.6562 0 24 0ZM49.5 15C49.5 10.875 46.125 7.5 42 7.5C40.4062 7.5 39 7.96875 37.7812 8.8125C37.4062 9 37.0312 9.09375 36.6562 9C36.1875 8.90625 35.9062 8.625 35.625 8.34375C33.2812 4.21875 28.9688 1.5 24 1.5C16.5 1.5 10.5 7.59375 10.5 15C10.5 15.2812 10.5 15.4688 10.5 15.75C10.5 16.4062 10.125 16.9688 9.46875 17.25C4.78125 18.8438 1.5 23.3438 1.5 28.5C1.5 35.1562 6.84375 40.5 13.5 40.5H48C53.7188 40.5 58.5 35.8125 58.5 30C58.5 24.9375 54.8438 20.7188 50.0625 19.7812C49.5938 19.6875 49.2188 19.4062 49.0312 19.0312C48.8438 18.6562 48.75 18.1875 48.9375 17.7188C49.3125 16.875 49.5 16.0312 49.5 15Z" fill="#0030CC"/>
</svg>
